<?xml version="1.0" standalone="no"?>
<!DOCTYPE svg PUBLIC "-//W3C//DTD SVG 20010904//EN"
 "http://www.w3.org/TR/2001/REC-SVG-20010904/DTD/svg10.dtd">
<svg version="1.0" xmlns="http://www.w3.org/2000/svg"
 width="100.000000pt" height="115.000000pt" viewBox="0 0 100.000000 115.000000"
 preserveAspectRatio="xMidYMid meet">

<g transform="translate(0.000000,115.000000) scale(0.100000,-0.100000)"
fill="#000000" stroke="none">
<path d="M0 1045 l0 -105 49 0 c63 0 102 -29 103 -78 2 -53 -34 -82 -99 -82
l-53 0 0 -65 0 -65 51 0 c28 0 59 -4 69 -10 28 -15 40 -61 25 -97 -15 -36 -31
-43 -96 -43 l-49 0 0 -65 0 -65 53 0 c65 0 101 -29 99 -82 -1 -49 -40 -78
-103 -78 l-49 0 0 -105 0 -105 500 0 500 0 0 575 0 575 -500 0 -500 0 0 -105z
m523 -189 c18 -7 43 -26 57 -41 21 -22 25 -37 25 -85 0 -51 -4 -63 -29 -89
-58 -60 -150 -60 -200 0 -63 74 -40 176 49 215 39 17 58 17 98 0z m93 -332
c48 -35 67 -70 72 -129 l4 -55 -216 0 -216 0 0 39 c0 49 14 88 43 120 39 42
74 51 184 49 84 -3 106 -6 129 -24z"/>
<path d="M0 855 l0 -45 43 0 c30 0 49 6 60 18 37 41 13 72 -55 72 l-48 0 0
-45z"/>
<path d="M0 575 l0 -45 44 0 c66 0 96 38 60 74 -9 10 -33 16 -60 16 l-44 0 0
-45z"/>
<path d="M0 295 l0 -45 48 0 c50 0 72 12 72 40 0 29 -34 50 -78 50 l-42 0 0
-45z"/>
</g>
</svg>
